<svg width="25" height="25" viewBox="0 0 25 25" fill="none" xmlns="http://www.w3.org/2000/svg">
<path fill-rule="evenodd" clip-rule="evenodd" d="M13.5417 16.1458H11.4584C10.0202 16.1458 8.85425 17.3117 8.85425 18.7499V22.9166C8.85425 23.2042 9.08743 23.4374 9.37508 23.4374H15.6251C15.9127 23.4374 16.1459 23.2042 16.1459 22.9166V18.7499C16.1459 17.3117 14.98 16.1458 13.5417 16.1458ZM15.1042 18.7499V22.3958H9.89591V18.7499C9.89591 17.887 10.5955 17.1874 11.4584 17.1874H13.5417C14.4047 17.1874 15.1042 17.887 15.1042 18.7499Z" fill="#02393E"/>
<path fill-rule="evenodd" clip-rule="evenodd" d="M1.69621 11.8068C1.88863 12.0206 2.21795 12.0379 2.43176 11.8455L3.64584 10.7528V20.8333C3.64584 22.2716 4.81176 23.4375 6.25 23.4375H18.75C20.1882 23.4375 21.3542 22.2716 21.3542 20.8333V10.7528L22.5683 11.8455C22.7821 12.0379 23.1114 12.0206 23.3038 11.8068C23.4962 11.5929 23.4789 11.2636 23.2651 11.0712L12.8484 1.6962C12.6503 1.51793 12.3497 1.51793 12.1516 1.6962L1.73492 11.0712C1.52111 11.2636 1.50378 11.5929 1.69621 11.8068ZM20.3383 9.8385L12.5 2.78404L4.66172 9.8385C4.67845 9.88958 4.6875 9.94413 4.6875 10.0008V20.8333C4.6875 21.6963 5.38706 22.3958 6.25 22.3958H18.75C19.6129 22.3958 20.3125 21.6963 20.3125 20.8333V10.0008C20.3125 9.94413 20.3216 9.88958 20.3383 9.8385Z" fill="#37929A"/>
</svg>
