<svg width="25" height="25" viewBox="0 0 25 25" fill="none" xmlns="http://www.w3.org/2000/svg">
<path fill-rule="evenodd" clip-rule="evenodd" d="M16 23V19.5C16 18.1193 14.8807 17 13.5 17H11.5C10.1193 17 9 18.1193 9 19.5V23H6.5C5.11929 23 4 21.8807 4 20.5V10.8227L2.83449 11.8716C2.62923 12.0564 2.31309 12.0397 2.12836 11.8345C1.94363 11.6292 1.96027 11.3131 2.16552 11.1284L12.1655 2.12835C12.3557 1.95722 12.6443 1.95722 12.8345 2.12835L22.8345 11.1284C23.0397 11.3131 23.0564 11.6292 22.8716 11.8345C22.6869 12.0397 22.3708 12.0564 22.1655 11.8716L21 10.8227V20.5C21 21.8807 19.8807 23 18.5 23H16Z" fill="#37929A"/>
<path fill-rule="evenodd" clip-rule="evenodd" d="M15 19.5C15 18.6716 14.3284 18 13.5 18H11.5C10.6716 18 10 18.6716 10 19.5V23H15V19.5Z" fill="#02393E"/>
</svg>
