<svg width="25" height="25" viewBox="0 0 25 25" fill="none" xmlns="http://www.w3.org/2000/svg">
<path fill-rule="evenodd" clip-rule="evenodd" d="M8 6.5C8 8.98528 10.0147 11 12.5 11C14.9853 11 17 8.98528 17 6.5C17 4.01472 14.9853 2 12.5 2C10.0147 2 8 4.01472 8 6.5ZM16 6.5C16 8.433 14.433 10 12.5 10C10.567 10 9 8.433 9 6.5C9 4.567 10.567 3 12.5 3C14.433 3 16 4.567 16 6.5Z" fill="#02393E"/>
<path fill-rule="evenodd" clip-rule="evenodd" d="M20 19.5C20 15.3579 16.6421 12 12.5 12C8.35786 12 5 15.3579 5 19.5V21.5C5 21.7761 5.22386 22 5.5 22H19.5C19.7761 22 20 21.7761 20 21.5V19.5ZM19 19.5V21H6V19.5C6 15.9101 8.91015 13 12.5 13C16.0899 13 19 15.9101 19 19.5Z" fill="#37929A"/>
</svg>
