<svg width="25" height="25" viewBox="0 0 25 25" fill="none" xmlns="http://www.w3.org/2000/svg">
<path fill-rule="evenodd" clip-rule="evenodd" d="M5.98253 6.42766C5.95591 6.16489 5.89966 5.90857 5.81528 5.66204C5.72587 5.40077 5.86518 5.11649 6.12645 5.02707C6.38771 4.93766 6.67199 5.07697 6.76141 5.33824C6.87042 5.65678 6.9431 5.98791 6.97744 6.32687C7.21968 8.71804 5.4882 10.8082 3.11137 10.9878C2.89441 11.0042 2.67772 11.0042 2.46261 10.9881C2.18724 10.9674 1.98076 10.7274 2.00143 10.452C2.02209 10.1767 2.26207 9.9702 2.53744 9.99086C2.70265 10.0033 2.86915 10.0033 3.03603 9.99065C4.84972 9.85362 6.16834 8.26182 5.98253 6.42766ZM21.964 9.99065C22.1309 10.0033 22.2974 10.0033 22.4626 9.99086C22.738 9.9702 22.978 10.1767 22.9986 10.452C23.0193 10.7274 22.8128 10.9674 22.5374 10.9881C22.3223 11.0042 22.1056 11.0042 21.8887 10.9878C19.5119 10.8082 17.7804 8.71804 18.0226 6.32687C18.057 5.98791 18.1296 5.65678 18.2386 5.33824C18.3281 5.07697 18.6123 4.93766 18.8736 5.02707C19.1349 5.11649 19.2742 5.40077 19.1848 5.66204C19.1004 5.90857 19.0441 6.16489 19.0175 6.42766C18.8317 8.26182 20.1503 9.85362 21.964 9.99065ZM2.53744 17.0093C2.70265 16.9969 2.86915 16.9969 3.03603 17.0095C4.84972 17.1465 6.16834 18.7383 5.98253 20.5725C5.95591 20.8352 5.89966 21.0916 5.81528 21.3381C5.72587 21.5994 5.86518 21.8836 6.12645 21.9731C6.38771 22.0625 6.67199 21.9232 6.76141 21.6619C6.87042 21.3434 6.9431 21.0122 6.97744 20.6733C7.21968 18.2821 5.4882 16.1919 3.11137 16.0123C2.89441 15.9959 2.67772 15.9959 2.46261 16.0121C2.18724 16.0327 1.98076 16.2727 2.00143 16.5481C2.02209 16.8235 2.26207 17.0299 2.53744 17.0093ZM19.0175 20.5725C19.0441 20.8352 19.1004 21.0916 19.1848 21.3381C19.2742 21.5994 19.1349 21.8836 18.8736 21.9731C18.6123 22.0625 18.3281 21.9232 18.2386 21.6619C18.1296 21.3434 18.057 21.0122 18.0226 20.6733C17.7804 18.2821 19.5119 16.1919 21.8887 16.0123C22.1056 15.9959 22.3223 15.9959 22.5374 16.0121C22.8128 16.0327 23.0193 16.2727 22.9986 16.5481C22.978 16.8235 22.738 17.0299 22.4626 17.0093C22.2974 16.9969 22.1309 16.9969 21.964 17.0095C20.1503 17.1465 18.8317 18.7383 19.0175 20.5725Z" fill="#02393E"/>
<path fill-rule="evenodd" clip-rule="evenodd" d="M8 4.5V5H5.5C3.567 5 2 6.567 2 8.5V18.5C2 20.433 3.567 22 5.5 22H19.5C21.433 22 23 20.433 23 18.5V8.5C23 6.567 21.433 5 19.5 5H17V4.5C17 3.11929 15.8807 2 14.5 2H10.5C9.11929 2 8 3.11929 8 4.5ZM16 4.5V5H9V4.5C9 3.67157 9.67157 3 10.5 3H14.5C15.3284 3 16 3.67157 16 4.5ZM5.5 6C4.11929 6 3 7.11929 3 8.5V18.5C3 19.8807 4.11929 21 5.5 21H19.5C20.8807 21 22 19.8807 22 18.5V8.5C22 7.11929 20.8807 6 19.5 6H5.5ZM10 15.0055V14H16.5C16.7761 14 17 13.7761 17 13.5C17 13.2239 16.7761 13 16.5 13H8.5C8.22386 13 8 13.2239 8 13.5C8 13.7761 8.22386 14 8.5 14H9V15.0055C9 15.2816 9.22386 15.5055 9.5 15.5055C9.77614 15.5055 10 15.2816 10 15.0055Z" fill="#37929A"/>
</svg>
