<svg width="25" height="25" viewBox="0 0 25 25" fill="none" xmlns="http://www.w3.org/2000/svg">
<path fill-rule="evenodd" clip-rule="evenodd" d="M2 11.9093C4.56012 11.4391 6.5 9.19607 6.5 6.5C6.5 6.33287 6.49255 6.16748 6.47795 6.00415H7.75V5.75C7.75 4.23122 8.98122 3 10.5 3H14.5C16.0188 3 17.25 4.23122 17.25 5.75V6.00415H19.022C19.0075 6.16748 19 6.33287 19 6.5C19 9.01755 20.6915 11.14 23 11.793V17.0224C20.1968 17.275 18 19.631 18 22.5C18 22.67 18.0077 22.8381 18.0228 23.0042H6.4772C6.49229 22.8381 6.5 22.67 6.5 22.5C6.5 19.8039 4.56012 17.5609 2 17.0907V11.9093ZM9.5 14.5H16C16.2761 14.5 16.5 14.2761 16.5 14C16.5 13.7239 16.2761 13.5 16 13.5H8C7.72386 13.5 7.5 13.7239 7.5 14C7.5 14.2761 7.72386 14.5 8 14.5H8.5V15.5055C8.5 15.7816 8.72386 16.0055 9 16.0055C9.27614 16.0055 9.5 15.7816 9.5 15.5055V14.5ZM15.75 6H9.25V5.75C9.25 5.05964 9.80964 4.5 10.5 4.5H14.5C15.1904 4.5 15.75 5.05964 15.75 5.75V6Z" fill="#37929A"/>
<path fill-rule="evenodd" clip-rule="evenodd" d="M2 9.4999V10.8842C4.00399 10.4295 5.5 8.63734 5.5 6.49575C5.5 6.3282 5.49084 6.1628 5.473 6C3.55243 6.01451 2 7.57591 2 9.4999ZM20 6.49575C20 8.45508 21.2522 10.1219 23 10.7397V9.4999C23 7.74461 21.7079 6.29112 20.0229 6.0387C20.0078 6.18899 20 6.34146 20 6.49575ZM5.47209 22.9998C3.55194 22.9848 2 21.4236 2 19.4999V18.1073C4.00399 18.562 5.5 20.3542 5.5 22.4957C5.5 22.6661 5.49053 22.8343 5.47209 22.9998ZM19 22.4957C19 22.6662 19.0095 22.8344 19.0279 22.9999H19.5C21.433 22.9999 23 21.4329 23 19.4999V18.0232C20.75 18.2719 19 20.1795 19 22.4957Z" fill="#02393E"/>
</svg>
